<svg xmlns="http://www.w3.org/2000/svg">
<g id="surface1">
<path style=" stroke:none;fill-rule:nonzero;fill:currentColor;fill-opacity:1;" d="M 3.046875 0.0703125 C 1.46875 0.394531 0.296875 1.613281 0.0507812 3.1875 C 0.0078125 3.449219 0 5.765625 0.0078125 12.210938 C 0.0234375 21.683594 0.00390625 20.925781 0.28125 21.664062 C 0.589844 22.496094 1.503906 23.410156 2.335938 23.71875 C 3.046875 23.984375 2.820312 23.972656 6.769531 23.992188 L 10.421875 24.003906 L 10.671875 23.882812 C 10.953125 23.742188 11.148438 23.476562 11.1875 23.15625 C 11.234375 22.808594 10.972656 22.351562 10.644531 22.203125 C 10.554688 22.164062 9.511719 22.144531 6.914062 22.125 L 3.304688 22.101562 L 2.992188 21.953125 C 2.554688 21.746094 2.28125 21.484375 2.070312 21.054688 L 1.898438 20.699219 L 1.898438 3.304688 L 2.046875 2.992188 C 2.253906 2.554688 2.515625 2.28125 2.945312 2.070312 L 3.300781 1.898438 L 15.074219 1.898438 L 15.429688 2.070312 C 15.859375 2.28125 16.121094 2.554688 16.328125 2.992188 L 16.476562 3.304688 L 16.5 4.921875 C 16.527344 6.734375 16.519531 6.703125 16.890625 7.003906 C 17.058594 7.140625 17.09375 7.148438 17.4375 7.148438 C 17.773438 7.148438 17.816406 7.140625 17.984375 7.003906 C 18.085938 6.929688 18.210938 6.769531 18.273438 6.652344 C 18.378906 6.445312 18.378906 6.441406 18.359375 4.78125 C 18.347656 3.023438 18.34375 2.996094 18.09375 2.335938 C 17.957031 1.972656 17.605469 1.4375 17.273438 1.109375 C 16.953125 0.78125 16.410156 0.417969 16.039062 0.28125 C 15.308594 0.00390625 15.789062 0.0234375 9.304688 0.015625 C 4.523438 0.0078125 3.289062 0.0195312 3.046875 0.0703125 Z M 3.046875 0.0703125 "/>
<path style=" stroke:none;fill-rule:nonzero;fill:currentColor;fill-opacity:1;" d="M 9.992188 3.800781 C 9.773438 3.867188 9.484375 4.175781 9.417969 4.414062 C 9.308594 4.832031 9.472656 5.269531 9.828125 5.488281 L 10.007812 5.601562 L 13.992188 5.601562 L 14.171875 5.488281 C 14.269531 5.429688 14.40625 5.292969 14.476562 5.1875 C 14.582031 5.03125 14.601562 4.945312 14.601562 4.6875 C 14.601562 4.429688 14.582031 4.34375 14.476562 4.1875 C 14.40625 4.082031 14.269531 3.945312 14.171875 3.886719 L 13.992188 3.773438 L 12.070312 3.765625 C 10.941406 3.757812 10.082031 3.773438 9.992188 3.800781 Z M 9.992188 3.800781 "/>
<path style=" stroke:none;fill-rule:nonzero;fill:currentColor;fill-opacity:1;" d="M 4.367188 7.363281 C 4.148438 7.429688 3.859375 7.734375 3.792969 7.976562 C 3.683594 8.394531 3.847656 8.832031 4.203125 9.050781 L 4.382812 9.164062 L 13.992188 9.164062 L 14.171875 9.050781 C 14.269531 8.992188 14.40625 8.855469 14.476562 8.75 C 14.582031 8.59375 14.601562 8.507812 14.601562 8.25 C 14.601562 7.992188 14.582031 7.90625 14.476562 7.75 C 14.40625 7.644531 14.269531 7.507812 14.171875 7.449219 L 13.992188 7.335938 L 9.257812 7.328125 C 6.351562 7.320312 4.460938 7.335938 4.367188 7.363281 Z M 4.367188 7.363281 "/>
<path style=" stroke:none;fill-rule:nonzero;fill:currentColor;fill-opacity:1;" d="M 17.671875 9.066406 C 16.585938 9.300781 15.710938 9.914062 15.144531 10.851562 C 14.839844 11.351562 14.625 12.132812 14.625 12.730469 C 14.625 12.957031 15.257812 17.492188 15.394531 18.238281 C 15.417969 18.355469 15.40625 18.359375 15.03125 18.4375 C 14.457031 18.546875 14.015625 18.789062 13.589844 19.214844 C 12.871094 19.929688 12.59375 20.902344 12.84375 21.863281 C 12.980469 22.390625 13.1875 22.753906 13.59375 23.15625 C 13.996094 23.5625 14.359375 23.769531 14.886719 23.90625 C 15.230469 23.996094 15.417969 24 18.375 24 C 21.332031 24 21.519531 23.996094 21.863281 23.90625 C 22.390625 23.769531 22.753906 23.5625 23.15625 23.15625 C 23.5625 22.753906 23.769531 22.390625 23.90625 21.863281 C 24.300781 20.320312 23.296875 18.75 21.71875 18.4375 C 21.34375 18.359375 21.332031 18.355469 21.355469 18.238281 C 21.367188 18.171875 21.539062 17.039062 21.734375 15.726562 C 22.199219 12.625 22.210938 12.300781 21.84375 11.335938 C 21.707031 10.972656 21.355469 10.4375 21.023438 10.109375 C 20.554688 9.628906 19.976562 9.304688 19.265625 9.109375 C 18.898438 9.007812 18.046875 8.984375 17.671875 9.066406 Z M 19.144531 11.054688 C 19.5625 11.25 19.84375 11.523438 20.039062 11.925781 C 20.316406 12.484375 20.320312 12.449219 19.78125 16.078125 C 19.457031 18.25 19.3125 19.351562 19.335938 19.476562 C 19.375 19.730469 19.523438 19.949219 19.75 20.101562 C 19.925781 20.222656 19.96875 20.226562 20.71875 20.25 C 21.46875 20.273438 21.511719 20.277344 21.6875 20.398438 C 21.980469 20.59375 22.101562 20.820312 22.101562 21.1875 C 22.101562 21.554688 21.980469 21.78125 21.6875 21.976562 L 21.496094 22.101562 L 15.253906 22.101562 L 15.0625 21.976562 C 14.769531 21.78125 14.648438 21.554688 14.648438 21.1875 C 14.648438 20.820312 14.769531 20.59375 15.0625 20.398438 C 15.238281 20.277344 15.28125 20.273438 16.03125 20.25 C 16.78125 20.226562 16.824219 20.222656 17 20.101562 C 17.226562 19.949219 17.375 19.730469 17.414062 19.476562 C 17.4375 19.351562 17.292969 18.25 16.96875 16.078125 C 16.4375 12.515625 16.4375 12.492188 16.683594 11.972656 C 16.859375 11.59375 17.132812 11.300781 17.480469 11.117188 C 17.84375 10.921875 18.050781 10.875 18.476562 10.894531 C 18.765625 10.90625 18.910156 10.945312 19.144531 11.054688 Z M 19.144531 11.054688 "/>
<path style=" stroke:none;fill-rule:nonzero;fill:currentColor;fill-opacity:1;" d="M 4.367188 10.925781 C 4.148438 10.992188 3.859375 11.296875 3.792969 11.539062 C 3.683594 11.957031 3.847656 12.394531 4.203125 12.613281 L 4.382812 12.726562 L 12.121094 12.726562 L 12.3125 12.601562 C 12.605469 12.40625 12.726562 12.179688 12.726562 11.8125 C 12.726562 11.445312 12.605469 11.21875 12.3125 11.023438 L 12.121094 10.898438 L 8.324219 10.890625 C 6.007812 10.882812 4.460938 10.898438 4.367188 10.925781 Z M 4.367188 10.925781 "/>
<path style=" stroke:none;fill-rule:nonzero;fill:currentColor;fill-opacity:1;" d="M 5.867188 14.71875 C 5.359375 14.855469 4.992188 15.066406 4.59375 15.46875 C 4.1875 15.871094 3.980469 16.234375 3.84375 16.761719 C 3.675781 17.421875 3.757812 18.140625 4.085938 18.765625 C 4.285156 19.144531 4.855469 19.714844 5.234375 19.914062 C 5.859375 20.242188 6.578125 20.324219 7.238281 20.15625 C 7.765625 20.019531 8.128906 19.8125 8.53125 19.40625 C 8.9375 19.003906 9.144531 18.640625 9.28125 18.113281 C 9.449219 17.453125 9.367188 16.734375 9.039062 16.109375 C 8.839844 15.730469 8.269531 15.160156 7.890625 14.960938 C 7.269531 14.640625 6.523438 14.550781 5.867188 14.71875 Z M 7.078125 16.660156 C 7.355469 16.84375 7.476562 17.078125 7.476562 17.4375 C 7.476562 17.804688 7.355469 18.03125 7.0625 18.226562 C 6.800781 18.398438 6.347656 18.40625 6.078125 18.238281 C 5.722656 18.019531 5.558594 17.582031 5.667969 17.164062 C 5.734375 16.925781 6.019531 16.617188 6.242188 16.550781 C 6.492188 16.476562 6.875 16.523438 7.078125 16.660156 Z M 7.078125 16.660156 "/>
</g>
</svg>
