<svg xmlns="http://www.w3.org/2000/svg">
<rect width="19" height="13" x="2.5" y="5.5" stroke="#001A34" stroke-opacity=".16" opacity=".75" rx="2.5"></rect>
<path fill="#0055CC" d="M3 8a2 2 0 0 1 2-2h14a2 2 0 0 1 2 2v8a2 2 0 0 1-2 2H5a2 2 0 0 1-2-2z"></path>
<path fill="white" d="M3.042 7.59A2 2 0 0 1 5 6h.344L12 10.438 18.656 6H19a2 2 0 0 1 1.958 1.59L14.344 12l6.614 4.41A2 2 0 0 1 19 18h-.344L12 13.563 5.344 18H5a2 2 0 0 1-1.958-1.59L9.656 12z"></path>
<path fill="white" fill-rule="evenodd" d="M10 10V6h4v4h7v4h-7v4h-4v-4H3v-4z" clip-rule="evenodd"></path>
<path fill="#F0121F" fill-rule="evenodd" d="M11 11V6h2v5h8v2h-8v5h-2v-5H3v-2z" clip-rule="evenodd"></path>
<path fill="#F0121F" d="M19.808 6.17 12 11.375 4.192 6.17c-.339.15-.628.39-.837.692L11.062 12l-7.707 5.138c.209.301.498.542.837.692L12 12.625l7.808 5.205c.338-.15.628-.39.837-.692L12.937 12l7.708-5.138a2 2 0 0 0-.837-.692"></path>
</svg>